<?xml version="1.0" encoding="utf-8"?>
<!-- Generator: Adobe Illustrator 23.0.2, SVG Export Plug-In . SVG Version: 6.00 Build 0)  -->
<svg version="1.1" id="Capa_1" xmlns="http://www.w3.org/2000/svg" xmlns:xlink="http://www.w3.org/1999/xlink" x="0px" y="0px"
	 viewBox="0 0 512 512" style="enable-background:new 0 0 512 512;" xml:space="preserve">
<style type="text/css">
	.st0{fill:#FFFFFF;}
</style>
<g>
	<g>
		<g>
			<polygon class="st0" points="436.9,331.4 185.7,331.4 79.7,89.4 14,89.4 14,59.5 99.3,59.5 205.3,301.5 436.9,301.5 			"/>
		</g>
		<polygon class="st0" points="498,120.5 436.9,271.5 226,271.5 165,120.5 		"/>
		<path class="st0" d="M286,407.5c0,25.4-20.7,44.9-44.9,44.9c-25.4,0-44.9-20.7-44.9-44.9s20.7-44.9,44.9-44.9
			C265.2,362.5,286,382.1,286,407.5z"/>
		<path class="st0" d="M436.9,407.5c0,25.4-20.7,44.9-44.9,44.9c-25.4,0-44.9-20.7-44.9-44.9s20.7-44.9,44.9-44.9
			C417.3,362.5,436.9,382.1,436.9,407.5z"/>
	</g>
</g>
</svg>
